<svg version="1.1" id="Layer_1" xmlns="http://www.w3.org/2000/svg" xmlns:xlink="http://www.w3.org/1999/xlink" x="0px" y="0px" viewBox="0 0 500 500" style="width: 151px;" xml:space="preserve" data-imageid="smartphone-data-82" imageName="Smartphone Data" class="illustrations_image">
<style type="text/css">
	.st0_smartphone-data-82{fill:#007F68;}
	.st1_smartphone-data-82{fill:url(#SVGID_1_);}
	.st2_smartphone-data-82{fill:url(#SVGID_00000173156025705987612080000018398541738113596351_);}
	.st3_smartphone-data-82{fill:url(#SVGID_00000101064157667570317860000000276471671601883567_);}
	.st4_smartphone-data-82{fill:#68E1FD;}
	.st5_smartphone-data-82{fill:#124577;}
	.st6_smartphone-data-82{fill:#56403D;}
	.st7_smartphone-data-82{fill:#FFA197;}
	.st8_smartphone-data-82{fill:#F2F2F2;}
	.st9_smartphone-data-82{fill:#FF6753;}
	.st10_smartphone-data-82{fill:#FDD400;}
	.st11_smartphone-data-82{opacity:0.3;fill:#844308;enable-background:new    ;}
	.st12_smartphone-data-82{fill:#844308;}
</style>
<g id="background_smartphone-data-82">
	<path class="st0_smartphone-data-82" d="M242.9,415.5L16.6,281.8c-7.2-4-13.4-10.7-6.4-15l227.1-130.9c3.4-2.1,8.6-3.5,12.1-1.5l237.5,137.8&#10;&#9;&#9;c7.2,4.2,8.5,15.9,1.3,20l-215.5,123C263.5,420.6,252.2,420.7,242.9,415.5z"/>
	
		<linearGradient id="SVGID_1_-smartphone-data-82" gradientUnits="userSpaceOnUse" x1="113.6404" y1="201.8394" x2="141.8704" y2="221.5294" gradientTransform="matrix(1 0 0 -1 0 502)">
		<stop offset="0" style="stop-color:#007F68"/>
		<stop offset="1" style="stop-color:#00674C"/>
	</linearGradient>
	<path class="st1_smartphone-data-82" d="M178.1,262.2c0,0,0.9,2.3-2.5,4.1s-61.2,42-61.2,42l-14.3-8.3l70.3-39.4L178.1,262.2z"/>
	
		<linearGradient id="SVGID_00000129198626946954351510000006753056285437539239_-smartphone-data-82" gradientUnits="userSpaceOnUse" x1="151.0087" y1="169.4829" x2="276.1225" y2="261.7536" gradientTransform="matrix(1 0 0 -1 0 502)">
		<stop offset="0" style="stop-color:#007F68"/>
		<stop offset="1" style="stop-color:#00674C"/>
	</linearGradient>
	<path style="fill:url(#SVGID_00000129198626946954351510000006753056285437539239_);" d="M278.6,243.7c0,0,0.5,15.3-4.5,19.8&#10;&#9;&#9;S171,336.7,171,336.7l-30.4-18.3L278.6,243.7z"/>
	
		<linearGradient id="SVGID_00000175317906978421176980000000742064689589439880_-smartphone-data-82" gradientUnits="userSpaceOnUse" x1="238.4004" y1="108.2845" x2="331.0766" y2="176.629" gradientTransform="matrix(1 0 0 -1 0 502)">
		<stop offset="0" style="stop-color:#007F68"/>
		<stop offset="1" style="stop-color:#00674C"/>
	</linearGradient>
	<path style="fill:url(#SVGID_00000175317906978421176980000000742064689589439880_);" d="M341.7,339.8l-71.1,62&#10;&#9;&#9;c0.2,2-47.4-28.6-47.4-28.6l89.4-44.1"/>
</g>
<g id="phone_smartphone-data-82">
	<path class="st4_smartphone-data-82 targetColor" d="M270.8,57.3c-18.4,10.9-63.8,37.8-77.4,45.7c-2.4,1.4-3.8,3.9-3.8,6.6v186.5c-0.3,3.8,4,7.3,7.5,5.3l76.4-43.5&#10;&#9;&#9;c3.1-1.8,5-4.2,5-7.8V61.8c0-2.9-2.3-5.2-5.2-5.1C272.5,56.6,271.6,56.9,270.8,57.3z" style="fill: rgb(104, 225, 253);"/>
	<path class="st5_smartphone-data-82" d="M278.1,59.5l-24.3,14v5.2c0,0.9-0.5,1.7-1.2,2.2L234,91.7c-0.8,0.5-1.8,0.2-2.2-0.6c-0.1-0.2-0.2-0.5-0.2-0.8&#10;&#9;&#9;v-3.8l-34.9,20.5c-0.7,0.4-1.1,1.1-1.1,1.9v186.4c0,0.8,0.7,1.5,1.5,1.5c0.3,0,0.5-0.1,0.8-0.2l80.9-46.9c0.3,2.9-1.1,5.8-3.6,7.4&#10;&#9;&#9;c-4.2,2.7-77.9,44.4-77.9,44.4s-5.8,2.6-7.5-4.3V109.6c0-2.5,1.2-4.8,3.2-6.2c3.4-2.4,78-46.1,78-46.1S275.5,54.8,278.1,59.5z"/>
	<path class="st6_smartphone-data-82" d="M235.2,140.6c4.1-4.2,8.6-6.5,12.8-6.5c0.8,0,1.6,0.1,2.3,0.2c3.2,0.8,6,2.7,7.9,5.4c1.8-2.6,3.9-5,6-7.3&#10;&#9;&#9;c-3.1-3.6-7.3-6.1-11.9-7.2c-8-1.7-16.4,1.4-23.6,8.8c-2.1,2.2-4.1,4.6-5.7,7.2c2.6,1.6,5.2,3.3,7.8,5&#10;&#9;&#9;C232,144.4,233.5,142.4,235.2,140.6z"/>
	<path class="st7_smartphone-data-82" d="M235.3,205.9c-4.4-1.3-8.1-5.4-10.4-11.6c-2.7-7.3-3.1-16.5-1.2-25.8c1.1-5.5,3.1-10.8,5.9-15.6&#10;&#9;&#9;c-2.6-1.7-5.1-3.4-7.8-5c-3.4,5.8-5.8,12.1-7.2,18.7c-2.3,11-1.8,22,1.6,30.9s9,14.9,16.1,17.1&#10;&#9;&#9;C233.2,211.7,234.1,208.8,235.3,205.9z"/>
	<path class="st8_smartphone-data-82" d="M270.3,147.8c-1.2-3.2-2.8-6.2-4.8-8.9c-2.2,2.4-4.2,4.9-6,7.5c0.9,1.5,1.6,3,2.2,4.6&#10;&#9;&#9;c2.7,7.3,3.1,16.5,1.2,25.8s-6.1,17.5-11.5,23.1c-4.6,4.7-9.5,6.9-14,6.4c-1.2,2.9-2.1,5.9-3.1,8.9h0.1c1.4,0.3,2.9,0.4,4.3,0.4&#10;&#9;&#9;c6.7,0,13.4-3.2,19.3-9.3c6.7-6.8,11.6-16.7,13.9-27.7S273.6,156.7,270.3,147.8z"/>
	
		<ellipse transform="matrix(0.1106 -0.9939 0.9939 0.1106 45.6303 403.3513)" class="st8_smartphone-data-82" cx="248.2" cy="176.2" rx="10.5" ry="5.8"/>
	<path class="st8_smartphone-data-82" d="M271.4,220.9L218,250.7c-0.9,0.6-1.1,1.7-0.5,2.6c0.5,0.8,1.5,1,2.3,0.7l53.4-29.8c0.8-0.6,1-1.7,0.5-2.6&#10;&#9;&#9;C273.1,220.8,272.2,220.5,271.4,220.9z"/>
	<path class="st8_smartphone-data-82" d="M270.5,213.9l-53.4,29.8c-2.1,1.2-0.3,4.4,1.8,3.2l53.4-29.8c0.9-0.5,1.2-1.6,0.7-2.5&#10;&#9;&#9;C272.6,213.7,271.4,213.4,270.5,213.9z"/>
</g>
<g id="character_smartphone-data-82">
	<path class="st9_smartphone-data-82" d="M338.2,311.8c0.7,1.6,3.6,23.6,3.5,28s-6.7,4.7-8.7,4.6s-5.9-2-8.4-2.1s-16.3-2.7-15.9-6.3s2.8-7.2,5.9-7.4&#10;&#9;&#9;s11.5,0.4,11.5,0.4l-0.8-20"/>
	<path class="st4_smartphone-data-82 targetColor" d="M335.4,207.7c0-0.3,3.4,16.2,3.7,30.1c0.2,10.4,3.4,88.2,3.4,88.2s-6,3.6-22.8-1.2c-2.4-0.7-4.7-72.3-4.7-72.3&#10;&#9;&#9;l2.1-35" style="fill: rgb(104, 225, 253);"/>
	<path class="st6_smartphone-data-82" d="M312.6,329c3.9,4.3,9.4,6.9,15.2,7c3.1,0,6.2-0.3,9.3-0.9c1.5-0.2,2.9-0.6,4.2-1.4c0.2,2,0.3,4.1,0.3,6.1&#10;&#9;&#9;c-0.2,4.3-6.8,4.7-8.8,4.5s-5.9-2-8.4-2.1s-16.2-2.8-15.8-6.5C309,332.9,310.5,330.2,312.6,329z"/>
	<path class="st9_smartphone-data-82" d="M279.6,161.1c0,0-3.1-4.5-3.1-6.8s2.7,0.7,2.7,0.7l-0.4-5.6c0,0,2.1,3.3,3.1,4.8s4.4,8.7,5,10s6.1,4.8,6.1,4.8&#10;&#9;&#9;s-1.6,5.1-3.2,5.5s-9.8-7-9.8-7L279.6,161.1z"/>
	<path class="st10_smartphone-data-82" d="M289.8,163c0,0-6.1,5.4-5,11.5c0,0,7.6,15.2,15.9,17.7s13-13.8,10.7-16.2S289.8,163,289.8,163z"/>
	<path class="st11_smartphone-data-82" d="M289.8,163c0,0-6.1,5.4-5,11.5c0,0,7.6,15.2,15.9,17.7s13-13.8,10.7-16.2S289.8,163,289.8,163z"/>
	<path class="st9_smartphone-data-82" d="M270.6,178.7c0,0-2.8-2.6-2.4-3.4s1.8-8.1,1.1-9.6c-1.1-2.6-3.8,3.2-3.8,3.2l-0.8-10.2c0,0-3,3.2-2.8,5.1&#10;&#9;&#9;s-0.1,14,0,14.9s2.7,7.5,2.7,7.5"/>
	<path class="st9_smartphone-data-82" d="M304.2,337c0.6,1.6,2.5,23.8,2,28.1s-7,4.4-8.9,4.1s-5.8-2.3-8.3-2.5s-16.1-3.5-15.5-7.1s3.1-7,6.2-7&#10;&#9;&#9;s11.5,0.9,11.5,0.9l0.2-20"/>
	<path class="st4_smartphone-data-82 targetColor" d="M303.7,215.5c-7,20.5-11.9,41.7-14.6,63.2c-1,8.5-4,65.6-4,65.6s10.6,7.3,23.4,3.2c0,0,9.6-69.7,10-71.1&#10;&#9;&#9;c4.9-19.8,5.4-32.1,6.6-62" style="fill: rgb(104, 225, 253);"/>
	<path class="st10_smartphone-data-82" d="M302.5,193.8c-0.6-8.3-3.6-12.6-1.7-20.6c6-6.5,17.2-14.3,18.4-14.6l6.3,1.5c5.5,1.3,9.4,6.1,9.5,11.7&#10;&#9;&#9;c0.3,12.8,0.8,34.3,0.3,36c-0.5,1.5-13.1,12.5-31.6,7.8C303.2,208.2,303,201,302.5,193.8z"/>
	<path class="st9_smartphone-data-82" d="M305.8,141.4c0,0-2.6,19.2,4.5,20.9s14.9-6.8,15.2-10.8S315.2,134.4,305.8,141.4z"/>
	<path class="st12_smartphone-data-82" d="M302,145.5c-1.1-0.1-1.9-1-1.8-2.1c0-0.1,0-0.1,0-0.2c0.7-4,3.5-12.1,13.6-12.3c7.8-0.1,12.6,3.3,14.9,8.5&#10;&#9;&#9;l0,0l0.1,0.3l0.6,1.7c0.7,2.5,1,5.1,0.7,7.7c-0.3,7.3-5.9,11.4-12.9,12.3c0,0,2.9-10.8-1.8-9.1s-8.6,1.2-7.1-6.3L302,145.5z"/>
	<path class="st12_smartphone-data-82" d="M321.2,140.4l-0.7,0.7C320.5,141.1,320.5,140.7,321.2,140.4z"/>
	<path class="st12_smartphone-data-82" d="M323.7,137.6c1.4-0.4,17.2-6.4,21.8,1.2s0.6,19.2,6.2,20.8s21.7,0.7,23.2,7.9c1.5,7-5.9,11-4.1,14.2&#10;&#9;&#9;c4.4,2.8,7.9,6.4,5.9,12c-1.1,2.9-3.3,5.3-6,6.9c-6.6,3.9-15.7,0.9-21.1-3.7c-4.8-4.1-4.4-8.9-2.5-14.3c1.4-4.2,3.9-9.3-0.8-12.3&#10;&#9;&#9;c-7-4.6-15,0.7-17.4-4.6s7.8-23.3-0.4-24.9c-4.5-0.9-6.5-0.6-7.4-0.2L323.7,137.6z"/>
	<path class="st10_smartphone-data-82" d="M263.8,185.8c1-3.4,3.5-6.1,6.8-7.4c6,5.7,13.4,11.9,15.8,10.9c3.5-1.4,10.6-18,20.7-18.8s9.8,13.1,9.8,13.1&#10;&#9;&#9;s-17.6,27.1-27.1,27.6c-7.7,0.4-21.6-13.1-27.1-19.6C262.9,189.6,263.2,187.7,263.8,185.8z"/>
	<path class="st6_smartphone-data-82" d="M273.4,359.6c0.3-2.5,1.7-4.8,3.8-6.3c2.4,3.4,5.9,5.9,10,6.8c6.3,1.4,13,0.8,19-1.5c0.1,2.2,0.2,4.3,0.1,6.5&#10;&#9;&#9;c-0.4,4.3-7,4.4-8.9,4.1s-5.8-2.3-8.3-2.5S272.8,363.2,273.4,359.6z"/>
</g>
<g id="data_smartphone-data-82">
	<path class="st10_smartphone-data-82" d="M137,287.6l38.6-21.2c1.5-0.8,2.5-2.4,2.5-4.1v-70.8c0-2.6-2.1-4.7-4.7-4.7c-0.8,0-1.6,0.2-2.4,0.6&#10;&#9;&#9;l-38.6,22.3c-1.5,0.8-2.4,2.4-2.4,4.1v69.7c0,2.6,2.1,4.7,4.7,4.7C135.5,288.1,136.3,287.9,137,287.6z"/>
	<path class="st6_smartphone-data-82" d="M139.4,238.2v17c0,4.9,7.7,4.9,7.7,0v-17C147,233.3,139.4,233.3,139.4,238.2z"/>
	<path class="st7_smartphone-data-82" d="M149.8,220.8v27.4c0,4.9,7.6,4.9,7.6,0v-27.4C157.4,215.9,149.8,215.9,149.8,220.8z"/>
	<path class="st8_smartphone-data-82" d="M162.1,201v42c0,4.9,7.7,4.9,7.7,0v-42C169.8,196.1,162.1,196,162.1,201z"/>
	<path class="st8_smartphone-data-82" d="M152.6,259.9l-9.5,5c-1.4,0.7-0.2,2.7,1.2,2l9.5-5C155.1,261.2,153.9,259.2,152.6,259.9z"/>
	<path class="st8_smartphone-data-82" d="M169.2,258.7c-8.8,4.7-17.7,9.3-26.7,13.6c-1.4,0.7-0.2,2.7,1.2,2c9-4.4,17.9-8.9,26.7-13.6&#10;&#9;&#9;C171.7,260,170.5,258,169.2,258.7z"/>
	<path class="st7_smartphone-data-82" d="M163.2,177.8l40.8-22.4c1.6-0.9,2.6-2.6,2.6-4.4V76.4c0-2.8-2.3-5-5-5c-0.9,0-1.7,0.2-2.5,0.7l-40.8,23.5&#10;&#9;&#9;c-1.5,0.9-2.5,2.5-2.5,4.3v73.6c0,2.8,2.3,5,5,5C161.7,178.4,162.5,178.2,163.2,177.8z"/>
	<path class="st6_smartphone-data-82" d="M165.7,125.8v17.9c0,5.2,8.1,5.2,8.1,0v-17.9C173.8,120.6,165.7,120.6,165.7,125.8z"/>
	<path class="st4_smartphone-data-82 targetColor" d="M176.7,107.4v28.9c0,5.2,8.1,5.2,8.1,0v-28.9C184.8,102.2,176.7,102.2,176.7,107.4z" style="fill: rgb(104, 225, 253);"/>
	<path class="st8_smartphone-data-82" d="M189.7,86.5v44.3c0,5.2,8.1,5.2,8.1,0V86.5C197.8,81.3,189.7,81.3,189.7,86.5z"/>
	<path class="st8_smartphone-data-82" d="M179.6,148.7l-10,5.2c-1.4,0.7-0.2,2.9,1.2,2.1l10-5.2C182.3,150.1,181.1,147.9,179.6,148.7z"/>
	<path class="st8_smartphone-data-82" d="M197.1,147.4c-9.3,5-18.7,9.8-28.1,14.4c-1.4,0.7-0.2,2.8,1.3,2.1c9.5-4.6,18.8-9.4,28.1-14.4&#10;&#9;&#9;C199.8,148.8,198.5,146.6,197.1,147.4z"/>
</g>
</svg>